<?xml version="1.0" standalone="no"?>
<!DOCTYPE svg PUBLIC "-//W3C//DTD SVG 20010904//EN"
 "http://www.w3.org/TR/2001/REC-SVG-20010904/DTD/svg10.dtd">
<svg version="1.0" xmlns="http://www.w3.org/2000/svg"
 width="512.000000pt" height="512.000000pt" viewBox="0 0 512.000000 512.000000"
 preserveAspectRatio="xMidYMid meet">
<metadata>
Created by potrace 1.11, written by Peter Selinger 2001-2013
</metadata>
<g transform="translate(0.000000,512.000000) scale(0.100000,-0.100000)"
fill="#000000" stroke="none">
<path d="M2250 5090 c-47 -10 -113 -29 -147 -43 -293 -119 -551 -464 -716
-957 -19 -58 -41 -131 -47 -162 l-13 -57 -76 -25 c-42 -13 -107 -34 -146 -46
-276 -84 -357 -114 -372 -136 -17 -26 -30 -78 -38 -151 -3 -26 -8 -55 -10 -63
-2 -8 -7 -44 -10 -80 -3 -36 -8 -72 -10 -80 -2 -8 -7 -40 -10 -70 -3 -30 -8
-66 -10 -80 -2 -14 -6 -47 -10 -75 -3 -27 -7 -63 -9 -80 -3 -16 -7 -52 -11
-80 -12 -95 -16 -130 -20 -160 -12 -85 -36 -265 -40 -305 -3 -25 -7 -58 -9
-75 -3 -16 -14 -104 -26 -195 -12 -91 -23 -176 -25 -190 -2 -14 -7 -50 -10
-80 -3 -30 -8 -66 -10 -80 -2 -14 -7 -50 -10 -80 -4 -30 -9 -64 -11 -75 -2
-11 -6 -49 -10 -84 -3 -36 -7 -68 -9 -71 -1 -3 -6 -30 -9 -61 -4 -31 -8 -65
-10 -75 -2 -11 -7 -46 -10 -79 -6 -54 -10 -90 -21 -165 -4 -26 -22 -169 -30
-230 -2 -19 -9 -71 -15 -115 -29 -231 -29 -227 -10 -231 29 -5 396 -75 445
-84 28 -5 64 -12 80 -15 17 -3 80 -15 140 -27 61 -11 119 -22 130 -23 11 -2
70 -13 130 -24 61 -12 126 -24 145 -27 19 -3 41 -7 49 -10 8 -2 30 -7 50 -10
20 -3 115 -20 211 -39 96 -18 195 -36 220 -40 24 -4 47 -8 50 -10 4 -2 29 -7
56 -11 27 -3 51 -7 54 -9 4 -2 161 -32 310 -59 14 -2 122 -22 240 -45 118 -22
229 -43 245 -46 28 -4 42 -7 105 -20 32 -6 66 -12 160 -29 l75 -14 225 50
c203 44 842 183 1125 243 203 43 215 47 215 56 0 8 -10 79 -35 239 -10 68 -76
519 -120 820 -25 168 -47 316 -50 330 -2 14 -7 45 -10 70 -3 25 -10 70 -15
100 -5 30 -11 75 -14 100 -4 25 -10 70 -15 100 -6 30 -12 78 -16 105 -3 28
-10 75 -15 105 -5 30 -19 120 -30 200 -12 80 -23 156 -25 170 -4 24 -36 239
-56 380 -10 67 -16 106 -24 150 -2 14 -7 48 -10 75 -3 28 -12 91 -20 140 -18
119 -19 122 -59 405 -20 135 -38 255 -41 268 -9 36 -22 39 -280 57 -189 14
-177 10 -248 83 -36 37 -107 109 -160 159 -90 89 -96 93 -133 89 -29 -3 -169
-39 -192 -50 -1 0 -23 43 -47 97 -104 232 -231 355 -405 394 -8 2 -36 4 -62 5
-42 2 -53 7 -94 50 -94 96 -198 122 -364 88z m174 -170 c26 -9 36 -30 15 -30
-21 0 -134 -85 -191 -144 -142 -146 -270 -413 -312 -650 -3 -16 -9 -33 -13
-37 -4 -4 -69 -26 -143 -49 -74 -23 -160 -50 -190 -60 -30 -10 -56 -15 -58
-11 -1 4 16 60 38 124 166 483 405 781 685 852 61 16 135 18 169 5z m413 -176
c55 -32 104 -90 151 -183 40 -77 67 -149 60 -157 -6 -5 -231 -74 -234 -71 -1
1 -4 52 -8 112 -6 117 -17 197 -40 283 -14 52 -14 53 7 46 12 -3 41 -17 64
-30z m-245 -67 c26 -85 43 -220 43 -337 l0 -65 -85 -27 c-47 -14 -159 -50
-248 -78 -90 -28 -166 -50 -168 -47 -8 7 57 189 93 261 50 100 101 172 169
240 59 57 150 119 169 113 5 -2 17 -29 27 -60z"/>
</g>
</svg>
